<?xml version="1.0" encoding="UTF-8" standalone="no"?>
<!-- Created with Inkscape (http://www.inkscape.org/) -->

<svg width="80mm" height="80mm" viewBox="0 0 80 80" version="1.1" id="svg1" xml:space="preserve" xmlns="http://www.w3.org/2000/svg" xmlns:svg="http://www.w3.org/2000/svg"><defs id="defs1" /><g id="layer1" transform="translate(-28.04583,-57.943752)"><path id="path13547-5" style="display:inline;fill:#000000;fill-opacity:1;stroke:none;stroke-width:1.60313;stroke-linecap:round;paint-order:fill markers stroke" d="m 47.777235,62.747063 c -0.09939,-0.0027 -0.199182,0.0061 -0.301,0.0254 -1.048239,0.199161 -1.280818,0.548485 -1.408902,1.237691 -0.128084,0.689207 0.06085,1.784771 0.449015,2.962505 0.388161,1.177732 0.945245,2.437289 1.414977,3.565057 0.469732,1.12777 0.889193,2.047833 0.889193,2.966371 0,0.386187 0.21721,2.227976 0.553398,4.510584 0.336189,2.282607 0.78615,5.113524 1.235482,7.869636 0.243814,1.495504 0.487704,2.969372 0.713564,4.323356 l 2.054533,-9.520994 0.227545,-0.179495 c 0,0 0.617409,-0.483018 1.650806,-1.258678 a 0.80156547,0.80156547 0 0 1 -0.0077,-0.03534 c 0,0 -0.891571,-4.472882 -2.404687,-8.792519 -0.756559,-2.159818 -1.677034,-4.278208 -2.661505,-5.72784 -0.492236,-0.724816 -1.000988,-1.275422 -1.463579,-1.590607 -0.346943,-0.236384 -0.642941,-0.347117 -0.941108,-0.355125 z m 27.296022,6.914168 c -0.136388,0.0063 -0.287172,0.02175 -0.452329,0.04805 -0.748,0.11913 -1.729308,0.443988 -2.826087,0.922331 -0.525109,0.229018 -1.077499,0.493001 -1.648597,0.784257 -0.287842,0.722548 -0.454527,1.570172 0.347392,1.570172 1.057619,0 3.716228,-2.233513 4.946345,-3.319287 -0.108226,-0.0095 -0.230336,-0.01183 -0.366724,-0.0056 z m 0.584328,0.037 c -0.970274,1.326114 -3.46367,4.365459 -6.046514,4.537647 -1.664445,0.110967 -1.803469,-0.782641 -1.530407,-1.698304 -1.215095,0.695596 -2.469247,1.469803 -3.69816,2.264957 -4.993271,3.230838 -9.361689,6.648506 -9.566836,6.808679 l -2.454946,11.380569 0.302658,3.150837 c 0.153092,-0.434094 0.317615,-0.861927 0.492645,-1.282426 1.100794,-2.64459 2.609582,-5.019273 4.231677,-6.82801 1.622095,-1.808736 3.333919,-3.084919 5.046861,-3.402131 0.04156,-0.0077 0.08326,-0.01518 0.124819,-0.02209 a 0.80156547,0.80156547 0 0 1 0.04861,-0.27449 c 0,1e-6 1.0424,-2.882174 3.916316,-4.704992 1.312964,-0.832773 4.566018,-2.902787 6.997011,-5.057908 1.215497,-1.07756 2.215352,-2.193283 2.646593,-3.055842 0.21562,-0.43128 0.281957,-0.777492 0.254607,-1.016773 -0.02735,-0.239281 -0.11057,-0.419824 -0.423609,-0.661649 -0.07106,-0.05489 -0.184248,-0.105026 -0.341317,-0.138073 z m 1.704378,2.970789 c -0.639395,1.064281 -1.641285,2.095399 -2.776381,3.101683 -0.790855,0.701107 -1.65036,1.384043 -2.500235,2.018082 l -1.298996,8.740603 a 0.80156547,0.80156547 0 0 1 -0.234172,0.458404 c 0.252746,0.167689 0.498668,0.337649 0.737313,0.50811 2.44293,1.744949 4.156011,3.621392 4.156011,3.621392 a 0.80156547,0.80156547 0 0 1 0.01215,1.068136 c 0.237521,0.224113 0.484378,0.472397 0.747806,0.741731 0.867182,0.886628 1.797945,1.984777 2.578108,3.083457 0.780163,1.09868 1.415493,2.16283 1.663509,3.153596 0.124009,0.49541 0.175562,1.026076 -0.104385,1.536486 -0.279947,0.5104 -0.887653,0.78364 -1.469654,0.80801 -1.882432,0.0788 -3.724804,-0.60638 -5.182727,-1.44038 -0.728961,-0.417 -1.360808,-0.873272 -1.857917,-1.319434 -0.414536,-0.372079 -0.678185,-0.731525 -0.891402,-1.141596 -0.01678,-2.14e-4 -0.0034,-0.0013 -0.0729,0.01047 -0.233937,0.03982 -0.666479,0.20076 -1.089676,0.409249 -0.778948,0.383752 -1.431495,0.826784 -1.549184,0.905765 l -0.298239,0.505894 c 0.557854,0.650822 1.458664,1.833942 2.08767,3.315982 0.51804,1.22057 0.834012,2.70373 0.605866,4.23554 a 0.80156547,0.80156547 0 0 1 0.08892,0.0624 l 7.696215,6.24147 a 0.80156547,0.80156547 0 0 1 0.117086,1.12724 0.80156547,0.80156547 0 0 1 -1.127232,0.11708 l -7.251619,-5.87917 c -0.343684,0.79409 -0.86524,1.5806 -1.611593,2.33013 a 0.80156547,0.80156547 0 0 1 -1.133308,0.002 0.80156547,0.80156547 0 0 1 -0.0022,-1.1333 c 2.259919,-2.26954 1.9658,-4.53535 1.141592,-6.4773 -0.427492,-1.00724 -1.01452,-1.87069 -1.4807,-2.46876 l -3.14918,5.33902 a 0.80156547,0.80156547 0 0 1 -1.097961,0.28389 0.80156547,0.80156547 0 0 1 -0.283879,-1.09797 l 3.530263,-5.98189 a 0.80156547,0.80156547 0 0 0 0,-5.56e-4 0.80156547,0.80156547 0 0 1 0.229202,-0.557259 0.80156547,0.80156547 0 0 1 0.181705,-0.138628 l 0.572176,-0.969831 0.148015,-0.102173 c 0,0 0.891843,-0.61277 1.876694,-1.097961 0.492427,-0.242595 1.001545,-0.46089 1.532064,-0.551189 0.26526,-0.04514 0.545746,-0.06872 0.865997,0.03093 0.320251,0.09965 0.6656,0.398403 0.797513,0.751672 0.0073,0.01954 0.242084,0.378307 0.639003,0.734552 0.39692,0.356245 0.946488,0.759653 1.582323,1.123366 1.271667,0.727458 2.886063,1.289473 4.320594,1.229409 0.05975,-0.0021 0.09978,-0.0053 0.125372,-0.0064 0.003,-0.05483 0.0042,-0.170594 -0.03977,-0.346297 -0.08613,-0.344096 -0.31436,-0.842809 -0.636795,-1.404479 -5.305665,0.692079 -6.432395,-4.677689 -6.622557,-5.933846 -0.626368,-0.07803 -1.358313,-0.128869 -2.154497,-0.1447 -1.700596,-0.03382 -3.713977,0.06775 -5.761531,0.273385 -0.703513,0.07064 -1.539181,0.643365 -2.3837,1.722052 -0.84452,1.078688 -1.667739,2.60794 -2.40248,4.321147 -1.469478,3.426416 -2.604468,7.595456 -3.217112,10.535006 -0.230932,1.10804 0.390109,2.46568 1.718187,3.94283 1.328079,1.47714 3.286039,2.99337 5.323009,4.3714 2.036971,1.37802 4.151714,2.62474 5.819522,3.61752 0.833902,0.49639 1.555648,0.92756 2.112523,1.29182 0.278438,0.18213 0.514773,0.34778 0.714116,0.50535 0.199344,0.15759 0.362584,0.27362 0.525784,0.54677 0.366194,0.61293 0.457336,1.32642 0.56555,2.22298 0.108212,0.89657 0.167665,1.92897 0.202691,2.91391 0.07006,1.96989 0.03534,3.75559 0.03534,3.75559 a 0.80156547,0.80156547 0 0 1 -0.111563,0.39434 l 15.379727,0.17508 0.07401,0.47995 1.992124,-0.26898 -3.154703,-14.71642 c -0.07751,0.28726 -0.155935,0.57039 -0.23362,0.84777 -0.784534,2.80133 -1.550842,5.00986 -1.550842,5.00986 a 0.80156547,0.80156547 0 0 1 -1.020638,0.49265 0.80156547,0.80156547 0 0 1 -0.494856,-1.02064 c -10e-7,0 0.753486,-2.16327 1.523779,-4.91376 0.770293,-2.75049 1.547105,-6.1061 1.611594,-8.30816 0.02797,-0.955 -0.378666,-2.52525 -1.054329,-4.2394 -0.675663,-1.71416 -1.601007,-3.59579 -2.533925,-5.33517 -1.865383,-3.477868 -3.750263,-6.37594 -3.75118,-6.377329 l -3.360708,-5.14517 -0.01047,-0.217603 c 0,0 -0.08679,-1.768779 -0.173421,-3.661157 -0.08662,-1.892378 -0.172867,-3.84398 -0.172867,-4.424979 0,-0.451937 0.114479,-0.873496 0.262892,-1.467445 0.148411,-0.593951 0.343411,-1.302901 0.540695,-2.052324 0.394568,-1.498847 0.79395,-3.185297 0.855503,-4.297951 0.0073,-0.1316 0.01232,-0.25662 0.01491,-0.375561 z M 63.65679,86.123455 c -0.316134,0.0013 -0.626625,0.02841 -0.929511,0.0845 -1.095162,0.202807 -2.661047,1.239233 -4.146071,2.895125 -1.485023,1.655893 -2.913747,3.897526 -3.945035,6.375128 -1.706084,4.09876 -2.317086,8.774212 -0.553398,12.686742 7.1e-5,1.6e-4 -7.2e-5,3.9e-4 0,5.6e-4 l 0.131998,0.095 c 0.644238,-3.00028 1.762938,-7.05264 3.243621,-10.505183 0.768265,-1.791377 1.628839,-3.42091 2.611247,-4.675719 0.982406,-1.25481 2.116486,-2.192037 3.486079,-2.329576 2.098657,-0.210761 4.164042,-0.317249 5.953177,-0.28167 1.252017,0.0249 2.358706,0.107945 3.282282,0.299343 -0.650797,-0.587922 -1.484538,-1.288735 -2.434511,-1.967287 -2.00309,-1.430778 -4.486941,-2.686081 -6.699878,-2.676969 z m 9.34426,6.353037 c 0.194901,3.738264 3.828966,4.59866 4.674064,4.748624 -0.06446,-0.09501 -0.130546,-0.190158 -0.198274,-0.285536 -0.722837,-1.017951 -1.613131,-2.068966 -2.41739,-2.89126 -0.804258,-0.822293 -1.640645,-1.426719 -1.761817,-1.47352 -0.08841,-0.03415 -0.187458,-0.0668 -0.296583,-0.0983 z" /></g></svg>
